<svg xmlns="http://www.w3.org/2000/svg" width="32.569" height="32.569" viewBox="0 0 32.569 32.569">
  <g id="check-circle-duotone_1_" data-name="check-circle-duotone (1)" transform="translate(-8 -8)">
    <path id="Path_4129" data-name="Path 4129" d="M24.285,8A16.285,16.285,0,1,0,40.569,24.285,16.282,16.282,0,0,0,24.285,8Zm10.2,12.825L22.4,32.907a1.051,1.051,0,0,1-1.485,0l-6.829-6.829a1.051,1.051,0,0,1,0-1.485l1.485-1.486a1.051,1.051,0,0,1,1.486,0l4.6,4.6,9.854-9.854a1.051,1.051,0,0,1,1.486,0l1.485,1.486A1.051,1.051,0,0,1,34.483,20.825Z" fill="#fff" opacity="0.4"/>
    <path id="Path_4130" data-name="Path 4130" d="M104.629,168.734a1.051,1.051,0,0,1-1.485,0L96.315,161.9a1.051,1.051,0,0,1,0-1.485l1.485-1.486a1.051,1.051,0,0,1,1.486,0l4.6,4.6,9.854-9.854a1.051,1.051,0,0,1,1.486,0l1.485,1.486a1.051,1.051,0,0,1,0,1.485Z" transform="translate(-82.229 -135.827)" fill="#fff"/>
  </g>
</svg>
